<svg width="16" height="16" viewBox="0 0 16 16" fill="none"
     xmlns="http://www.w3.org/2000/svg">
    <path
            d="M4.17083 8.27547C3.84858 7.07921 4.07446 6.09878 4.57184 5.3697C5.07655 4.62988 5.88179 4.11936 6.75687 3.92248C7.63134 3.72574 8.54105 3.84917 9.26228 4.32827C9.97343 4.80068 10.5589 5.65725 10.7237 7.04429C10.7536 7.29584 10.9669 7.48528 11.2202 7.48528C12.6433 7.48528 13.4274 8.46869 13.4952 9.54268C13.5626 10.6076 12.9168 11.7812 11.3061 12.1008C11.0352 12.1546 10.8592 12.4177 10.913 12.6886C10.9667 12.9594 11.2299 13.1354 11.5007 13.0817C13.6144 12.6623 14.5914 11.0329 14.4933 9.47959C14.4029 8.05025 13.394 6.70159 11.654 6.50881C11.3955 5.09909 10.7212 4.09688 9.81561 3.49531C8.83313 2.84266 7.63561 2.69979 6.53737 2.94687C5.43973 3.19382 4.40675 3.83725 3.74576 4.80615C3.14275 5.69007 2.86622 6.82102 3.10815 8.11098C2.55193 8.38518 2.13333 8.75251 1.86088 9.18461C1.52439 9.71829 1.43106 10.3203 1.54823 10.8903C1.78203 12.0278 2.82435 12.9665 4.27464 13.1379C4.54888 13.1703 4.79746 12.9742 4.82986 12.7C4.86227 12.4258 4.66622 12.1772 4.39199 12.1448C3.30276 12.0161 2.66195 11.3419 2.52775 10.689C2.46092 10.3638 2.51237 10.0263 2.70678 9.71796C2.90252 9.40752 3.2632 9.09657 3.86204 8.87427C4.10418 8.78438 4.23801 8.52486 4.17083 8.27547Z"
            fill="#0026FF"/>
    <path
            d="M7.64643 9.48237C7.84169 9.28711 8.15827 9.28711 8.35354 9.48237L9.68687 10.8157C9.88213 11.011 9.88213 11.3275 9.68687 11.5228C9.49161 11.7181 9.17502 11.7181 8.97976 11.5228L8.49998 11.043V13.8359C8.49998 14.1121 8.27612 14.3359 7.99998 14.3359C7.72384 14.3359 7.49998 14.1121 7.49998 13.8359V11.043L7.0202 11.5228C6.82494 11.7181 6.50836 11.7181 6.3131 11.5228C6.11783 11.3275 6.11783 11.011 6.3131 10.8157L7.64643 9.48237Z"
            fill="#0026FF"/>
</svg>